REM DIRINDEX 1\2,1\4,1\5,1\6,1\7,1\3\8,1\3\9,1\3\10
REM DIRNAME folder01,folder02,folder03,folder04,folder05,folder06,folder07,folder08,folder09,folder10
TITLE ""
FILE "DB4500_5th_3B_08.mp3" MP3
  TRACK 01 AUDIO
    TITLE "0:"
    INDEX 01 00:00:00
  TRACK 02 AUDIO
    TITLE "8:cjc113_2093"
    INDEX 01 00:00:01
  TRACK 03 AUDIO
    TITLE "0:"
    INDEX 01 00:01:15
  TRACK 04 AUDIO
    TITLE "9:cjc113_2094"
    INDEX 01 00:01:32
  TRACK 05 AUDIO
    TITLE "0:"
    INDEX 01 00:02:59
  TRACK 06 AUDIO
    TITLE "10:cjc113_2095"
    INDEX 01 00:03:06
  TRACK 07 AUDIO
    TITLE "0:"
    INDEX 01 00:08:11
  TRACK 08 AUDIO
    TITLE "8:cjc113_2096"
    INDEX 01 00:08:58
  TRACK 09 AUDIO
    TITLE "0:"
    INDEX 01 00:09:71
  TRACK 10 AUDIO
    TITLE "9:cjc113_2097"
    INDEX 01 00:10:18
  TRACK 11 AUDIO
    TITLE "0:"
    INDEX 01 00:11:17
  TRACK 12 AUDIO
    TITLE "10:cjc113_2098"
    INDEX 01 00:11:35
  TRACK 13 AUDIO
    TITLE "0:"
    INDEX 01 00:15:23
  TRACK 14 AUDIO
    TITLE "8:cjc113_2099"
    INDEX 01 00:15:68
  TRACK 15 AUDIO
    TITLE "0:"
    INDEX 01 00:17:02
  TRACK 16 AUDIO
    TITLE "9:cjc113_2100"
    INDEX 01 00:17:20
  TRACK 17 AUDIO
    TITLE "0:"
    INDEX 01 00:18:50
  TRACK 18 AUDIO
    TITLE "10:cjc113_2101"
    INDEX 01 00:18:70
  TRACK 19 AUDIO
    TITLE "0:"
    INDEX 01 00:21:62
  TRACK 20 AUDIO
    TITLE "8:cjc113_2102"
    INDEX 01 00:22:30
  TRACK 21 AUDIO
    TITLE "0:"
    INDEX 01 00:23:42
  TRACK 22 AUDIO
    TITLE "9:cjc113_2103"
    INDEX 01 00:23:59
  TRACK 23 AUDIO
    TITLE "0:"
    INDEX 01 00:24:59
  TRACK 24 AUDIO
    TITLE "10:cjc113_2104"
    INDEX 01 00:25:03
  TRACK 25 AUDIO
    TITLE "0:"
    INDEX 01 00:28:15
  TRACK 26 AUDIO
    TITLE "8:cjc113_2105"
    INDEX 01 00:28:59
  TRACK 27 AUDIO
    TITLE "0:"
    INDEX 01 00:29:62
  TRACK 28 AUDIO
    TITLE "9:cjc113_2106"
    INDEX 01 00:30:05
  TRACK 29 AUDIO
    TITLE "0:"
    INDEX 01 00:31:08
  TRACK 30 AUDIO
    TITLE "10:cjc113_2107"
    INDEX 01 00:31:27
  TRACK 31 AUDIO
    TITLE "0:"
    INDEX 01 00:34:26
  TRACK 32 AUDIO
    TITLE "8:cjc113_2108"
    INDEX 01 00:34:65
  TRACK 33 AUDIO
    TITLE "0:"
    INDEX 01 00:36:15
  TRACK 34 AUDIO
    TITLE "9:cjc113_2109"
    INDEX 01 00:36:33
  TRACK 35 AUDIO
    TITLE "0:"
    INDEX 01 00:37:59
  TRACK 36 AUDIO
    TITLE "10:cjc113_2110"
    INDEX 01 00:38:04
  TRACK 37 AUDIO
    TITLE "0:"
    INDEX 01 00:40:26
  TRACK 38 AUDIO
    TITLE "8:cjc113_2111"
    INDEX 01 00:40:68
  TRACK 39 AUDIO
    TITLE "0:"
    INDEX 01 00:42:08
  TRACK 40 AUDIO
    TITLE "9:cjc113_2112"
    INDEX 01 00:42:27
  TRACK 41 AUDIO
    TITLE "0:"
    INDEX 01 00:43:62
  TRACK 42 AUDIO
    TITLE "10:cjc113_2113"
    INDEX 01 00:44:07
  TRACK 43 AUDIO
    TITLE "0:"
    INDEX 01 00:46:68
  TRACK 44 AUDIO
    TITLE "8:cjc113_2114"
    INDEX 01 00:47:38
  TRACK 45 AUDIO
    TITLE "0:"
    INDEX 01 00:48:63
  TRACK 46 AUDIO
    TITLE "9:cjc113_2115"
    INDEX 01 00:49:06
  TRACK 47 AUDIO
    TITLE "0:"
    INDEX 01 00:50:35
  TRACK 48 AUDIO
    TITLE "10:cjc113_2116"
    INDEX 01 00:50:52
  TRACK 49 AUDIO
    TITLE "0:"
    INDEX 01 00:55:20
  TRACK 50 AUDIO
    TITLE "8:cjc113_2117"
    INDEX 01 00:55:67
  TRACK 51 AUDIO
    TITLE "0:"
    INDEX 01 00:56:71
  TRACK 52 AUDIO
    TITLE "9:cjc113_2118"
    INDEX 01 00:57:19
  TRACK 53 AUDIO
    TITLE "0:"
    INDEX 01 00:58:38
  TRACK 54 AUDIO
    TITLE "10:cjc113_2119"
    INDEX 01 00:58:66
  TRACK 55 AUDIO
    TITLE "0:"
    INDEX 01 01:02:36
  TRACK 56 AUDIO
    TITLE "8:cjc113_2120"
    INDEX 01 01:03:08
  TRACK 57 AUDIO
    TITLE "0:"
    INDEX 01 01:04:33
  TRACK 58 AUDIO
    TITLE "9:cjc113_2121"
    INDEX 01 01:04:58
  TRACK 59 AUDIO
    TITLE "0:"
    INDEX 01 01:06:02
  TRACK 60 AUDIO
    TITLE "10:cjc113_2122"
    INDEX 01 01:06:24
  TRACK 61 AUDIO
    TITLE "0:"
    INDEX 01 01:09:50
  TRACK 62 AUDIO
    TITLE "8:cjc113_2123"
    INDEX 01 01:10:20
  TRACK 63 AUDIO
    TITLE "0:"
    INDEX 01 01:11:39
  TRACK 64 AUDIO
    TITLE "9:cjc113_2124"
    INDEX 01 01:11:60
  TRACK 65 AUDIO
    TITLE "0:"
    INDEX 01 01:13:06
  TRACK 66 AUDIO
    TITLE "10:cjc113_2125"
    INDEX 01 01:13:28
  TRACK 67 AUDIO
    TITLE "0:"
    INDEX 01 01:18:02
  TRACK 68 AUDIO
    TITLE "8:cjc113_2126"
    INDEX 01 01:18:49
  TRACK 69 AUDIO
    TITLE "0:"
    INDEX 01 01:19:62
  TRACK 70 AUDIO
    TITLE "9:cjc113_2127"
    INDEX 01 01:20:10
  TRACK 71 AUDIO
    TITLE "0:"
    INDEX 01 01:21:47
  TRACK 72 AUDIO
    TITLE "10:cjc113_2128"
    INDEX 01 01:21:72
  TRACK 73 AUDIO
    TITLE "0:"
    INDEX 01 01:26:05
